STARTFONT 2.3
FONT -FontForge-Righteous-Book-R-Normal--10-100-72-72-P-54-ISO10646-1
SIZE 10 72 72  2
FONTBOUNDINGBOX 13 13 -2 -3
COMMENT "Generated by fontforge, http://fontforge.sourceforge.net"
COMMENT "Copyright (c) 2011 by Brian J. Bonislawsky DBA Astigmatic (AOETI) (astigma@astigmatic.com), with ReservedFont Name "Righteous""
STARTPROPERTIES 40
FOUNDRY "FontForge"
FAMILY_NAME "Righteous"
WEIGHT_NAME "Book"
SLANT "R"
SETWIDTH_NAME "Normal"
ADD_STYLE_NAME ""
PIXEL_SIZE 10
POINT_SIZE 100
RESOLUTION_X 72
RESOLUTION_Y 72
SPACING "P"
AVERAGE_WIDTH 54
CHARSET_REGISTRY "ISO10646"
CHARSET_ENCODING "1"
FONTNAME_REGISTRY ""
CHARSET_COLLECTIONS "ISO8859-2 ISO8859-9 ISO8859-4 ISO10646-1"
BITS_PER_PIXEL 2
FONT_NAME "Righteous-Regular"
FACE_NAME "Righteous"
COPYRIGHT "Copyright (c) 2011 by Brian J. Bonislawsky DBA Astigmatic (AOETI) (astigma@astigmatic.com), with ReservedFont Name "Righteous""
FONT_VERSION "1.000"
FONT_ASCENT 8
FONT_DESCENT 2
UNDERLINE_POSITION -1
UNDERLINE_THICKNESS 1
X_HEIGHT 5
CAP_HEIGHT 6
RAW_ASCENT 799
RAW_DESCENT 200
NORM_SPACE 3
RELATIVE_WEIGHT 40
RELATIVE_SETWIDTH 50
SUPERSCRIPT_X 0
SUPERSCRIPT_Y 4
SUPERSCRIPT_SIZE 6
SUBSCRIPT_X 0
SUBSCRIPT_Y 1
SUBSCRIPT_SIZE 6
AVG_LOWERCASE_WIDTH 53
AVG_UPPERCASE_WIDTH 64
ENDPROPERTIES
CHARS 372
STARTCHAR space
ENCODING 32
SWIDTH 279 0
DWIDTH 3 0
BBX 1 1 0 0
BITMAP
00
ENDCHAR
STARTCHAR exclam
ENCODING 33
SWIDTH 274 0
DWIDTH 3 0
BBX 3 8 0 -1
BITMAP
74
70
70
70
70
20
70
10
ENDCHAR
STARTCHAR quotedbl
ENCODING 34
SWIDTH 409 0
DWIDTH 4 0
BBX 4 2 0 5
BITMAP
7A
69
ENDCHAR
STARTCHAR numbersign
ENCODING 35
SWIDTH 561 0
DWIDTH 6 0
BBX 5 5 0 1
BITMAP
0980
3FC0
2B40
BF80
3600
ENDCHAR
STARTCHAR dollar
ENCODING 36
SWIDTH 458 0
DWIDTH 5 0
BBX 4 7 0 0
BITMAP
08
2E
A5
7F
6B
6D
08
ENDCHAR
STARTCHAR percent
ENCODING 37
SWIDTH 685 0
DWIDTH 7 0
BBX 7 7 0 0
BITMAP
7860
99C0
6E80
1750
0AE4
1D94
24F4
ENDCHAR
STARTCHAR ampersand
ENCODING 38
SWIDTH 485 0
DWIDTH 5 0
BBX 5 7 0 0
BITMAP
0900
3F40
6000
3D00
6000
3F40
0900
ENDCHAR
STARTCHAR quotesingle
ENCODING 39
SWIDTH 238 0
DWIDTH 2 0
BBX 2 2 0 5
BITMAP
70
60
ENDCHAR
STARTCHAR parenleft
ENCODING 40
SWIDTH 351 0
DWIDTH 4 0
BBX 3 9 0 -1
BITMAP
1C
34
70
B0
A0
B0
70
38
1C
ENDCHAR
STARTCHAR parenright
ENCODING 41
SWIDTH 351 0
DWIDTH 4 0
BBX 3 9 0 -1
BITMAP
B0
38
2C
1C
1C
1C
28
34
B0
ENDCHAR
STARTCHAR asterisk
ENCODING 42
SWIDTH 589 0
DWIDTH 6 0
BBX 6 6 0 3
BITMAP
0500
0A00
7FD0
2F40
2F80
2580
ENDCHAR
STARTCHAR plus
ENCODING 43
SWIDTH 485 0
DWIDTH 5 0
BBX 5 5 0 1
BITMAP
0800
1D00
BF40
1D00
0400
ENDCHAR
STARTCHAR comma
ENCODING 44
SWIDTH 264 0
DWIDTH 3 0
BBX 2 3 0 -1
BITMAP
10
70
30
ENDCHAR
STARTCHAR hyphen
ENCODING 45
SWIDTH 528 0
DWIDTH 5 0
BBX 5 2 0 3
BITMAP
1500
7F80
ENDCHAR
STARTCHAR period
ENCODING 46
SWIDTH 263 0
DWIDTH 3 0
BBX 2 3 0 -1
BITMAP
10
70
10
ENDCHAR
STARTCHAR slash
ENCODING 47
SWIDTH 490 0
DWIDTH 5 0
BBX 5 7 0 0
BITMAP
0340
0700
0E00
1D00
2800
3400
B000
ENDCHAR
STARTCHAR zero
ENCODING 48
SWIDTH 642 0
DWIDTH 6 0
BBX 6 7 0 0
BITMAP
1F80
79E0
B070
A070
B070
79E0
1F80
ENDCHAR
STARTCHAR one
ENCODING 49
SWIDTH 317 0
DWIDTH 3 0
BBX 3 7 0 0
BITMAP
B4
74
34
34
34
34
34
ENDCHAR
STARTCHAR two
ENCODING 50
SWIDTH 570 0
DWIDTH 6 0
BBX 6 7 0 0
BITMAP
7F40
16D0
05D0
3F80
7400
B540
BFC0
ENDCHAR
STARTCHAR three
ENCODING 51
SWIDTH 586 0
DWIDTH 6 0
BBX 6 7 0 0
BITMAP
BF80
56D0
05D0
2FC0
05D0
56D0
BF80
ENDCHAR
STARTCHAR four
ENCODING 52
SWIDTH 630 0
DWIDTH 6 0
BBX 6 7 0 0
BITMAP
3440
35D0
71D0
71D0
BBE0
6AE0
01D0
ENDCHAR
STARTCHAR five
ENCODING 53
SWIDTH 585 0
DWIDTH 6 0
BBX 6 7 0 0
BITMAP
3FD0
7540
7500
7FC0
00D0
55D0
BF80
ENDCHAR
STARTCHAR six
ENCODING 54
SWIDTH 615 0
DWIDTH 6 0
BBX 6 7 0 0
BITMAP
1E00
3900
7FC0
B5E0
B0A0
75E0
2F80
ENDCHAR
STARTCHAR seven
ENCODING 55
SWIDTH 516 0
DWIDTH 5 0
BBX 5 7 0 0
BITMAP
BFC0
5780
0340
0B00
0E00
1D00
2C00
ENDCHAR
STARTCHAR eight
ENCODING 56
SWIDTH 618 0
DWIDTH 6 0
BBX 6 7 0 0
BITMAP
2F80
75D0
39D0
3FD0
B0A0
B0A0
2FC0
ENDCHAR
STARTCHAR nine
ENCODING 57
SWIDTH 616 0
DWIDTH 6 0
BBX 6 7 0 0
BITMAP
2F80
75E0
A0A0
75E0
2FD0
02C0
0740
ENDCHAR
STARTCHAR colon
ENCODING 58
SWIDTH 276 0
DWIDTH 3 0
BBX 2 5 0 -1
BITMAP
70
10
10
70
10
ENDCHAR
STARTCHAR semicolon
ENCODING 59
SWIDTH 276 0
DWIDTH 3 0
BBX 3 5 0 -1
BITMAP
70
10
10
74
30
ENDCHAR
STARTCHAR less
ENCODING 60
SWIDTH 478 0
DWIDTH 5 0
BBX 4 6 0 1
BITMAP
02
0F
3C
78
1E
06
ENDCHAR
STARTCHAR equal
ENCODING 61
SWIDTH 539 0
DWIDTH 5 0
BBX 5 4 0 2
BITMAP
1500
7F80
1540
7F80
ENDCHAR
STARTCHAR greater
ENCODING 62
SWIDTH 478 0
DWIDTH 5 0
BBX 5 6 0 1
BITMAP
2000
7800
1E00
0B40
3D00
2400
ENDCHAR
STARTCHAR question
ENCODING 63
SWIDTH 603 0
DWIDTH 6 0
BBX 6 8 0 -1
BITMAP
BF80
55E0
01E0
0BC0
1D00
0400
1C00
0400
ENDCHAR
STARTCHAR at
ENCODING 64
SWIDTH 629 0
DWIDTH 6 0
BBX 6 6 0 0
BITMAP
0500
2AD0
6BA0
9EB0
6690
2E00
ENDCHAR
STARTCHAR A
ENCODING 65
SWIDTH 673 0
DWIDTH 7 0
BBX 7 7 0 0
BITMAP
1B80
39E0
7070
7074
7AF4
7AB4
7074
ENDCHAR
STARTCHAR B
ENCODING 66
SWIDTH 666 0
DWIDTH 7 0
BBX 6 7 0 0
BITMAP
7FD0
75B0
7570
7FE0
7570
75B0
7FD0
ENDCHAR
STARTCHAR C
ENCODING 67
SWIDTH 640 0
DWIDTH 6 0
BBX 6 7 0 0
BITMAP
1BE0
3960
B000
A000
B000
3960
1FE0
ENDCHAR
STARTCHAR D
ENCODING 68
SWIDTH 653 0
DWIDTH 7 0
BBX 7 7 0 0
BITMAP
7F40
76E0
7070
7074
7070
76E0
7F80
ENDCHAR
STARTCHAR E
ENCODING 69
SWIDTH 578 0
DWIDTH 6 0
BBX 6 7 0 0
BITMAP
7FD0
7550
7500
7F40
7500
7550
7FD0
ENDCHAR
STARTCHAR F
ENCODING 70
SWIDTH 562 0
DWIDTH 6 0
BBX 6 7 0 0
BITMAP
7FE0
7550
7500
7F00
7500
7000
7000
ENDCHAR
STARTCHAR G
ENCODING 71
SWIDTH 665 0
DWIDTH 7 0
BBX 7 7 0 0
BITMAP
1BE0
3960
B000
A010
B034
3974
1FE0
ENDCHAR
STARTCHAR H
ENCODING 72
SWIDTH 689 0
DWIDTH 7 0
BBX 7 7 0 0
BITMAP
7034
7034
7574
7FF4
7574
7034
7034
ENDCHAR
STARTCHAR I
ENCODING 73
SWIDTH 270 0
DWIDTH 3 0
BBX 2 7 0 0
BITMAP
70
70
70
70
70
70
70
ENDCHAR
STARTCHAR J
ENCODING 74
SWIDTH 416 0
DWIDTH 4 0
BBX 4 7 0 0
BITMAP
0A
0A
0A
0A
0E
6D
F4
ENDCHAR
STARTCHAR K
ENCODING 75
SWIDTH 625 0
DWIDTH 6 0
BBX 6 7 0 0
BITMAP
70A0
71C0
7740
7F40
7EC0
75D0
70B0
ENDCHAR
STARTCHAR L
ENCODING 76
SWIDTH 562 0
DWIDTH 6 0
BBX 6 7 0 0
BITMAP
7000
7000
7000
7000
7000
7550
7FE0
ENDCHAR
STARTCHAR M
ENCODING 77
SWIDTH 819 0
DWIDTH 8 0
BBX 8 7 0 0
BITMAP
2FB8
76DD
728A
728A
728A
728A
728A
ENDCHAR
STARTCHAR N
ENCODING 78
SWIDTH 689 0
DWIDTH 7 0
BBX 7 7 0 0
BITMAP
7434
7C34
7E34
7774
72F4
70F4
70B4
ENDCHAR
STARTCHAR O
ENCODING 79
SWIDTH 777 0
DWIDTH 8 0
BBX 8 7 0 0
BITMAP
1BE0
3978
B01D
A00D
B01D
397C
1FE0
ENDCHAR
STARTCHAR P
ENCODING 80
SWIDTH 642 0
DWIDTH 6 0
BBX 7 7 0 0
BITMAP
7F80
75F0
7074
7070
7AE0
7A40
7000
ENDCHAR
STARTCHAR Q
ENCODING 81
SWIDTH 777 0
DWIDTH 8 0
BBX 8 9 0 -2
BITMAP
1BE0
3978
B01D
A00D
B01D
397C
1FE0
00B0
0014
ENDCHAR
STARTCHAR R
ENCODING 82
SWIDTH 651 0
DWIDTH 7 0
BBX 7 7 0 0
BITMAP
7F80
75F0
7074
7070
7AE0
7AC0
70E0
ENDCHAR
STARTCHAR S
ENCODING 83
SWIDTH 610 0
DWIDTH 6 0
BBX 6 7 0 0
BITMAP
2FE0
B550
A500
7FD0
05A0
15E0
7F80
ENDCHAR
STARTCHAR T
ENCODING 84
SWIDTH 578 0
DWIDTH 6 0
BBX 6 7 0 0
BITMAP
FFE0
5E50
0A00
0A00
0A00
0A00
0A00
ENDCHAR
STARTCHAR U
ENCODING 85
SWIDTH 673 0
DWIDTH 7 0
BBX 7 7 0 0
BITMAP
7074
7074
7074
7074
7070
39E0
1B80
ENDCHAR
STARTCHAR V
ENCODING 86
SWIDTH 602 0
DWIDTH 6 0
BBX 6 7 0 0
BITMAP
A0B0
70E0
75D0
3AC0
2F80
1F40
0F00
ENDCHAR
STARTCHAR W
ENCODING 87
SWIDTH 819 0
DWIDTH 8 0
BBX 8 7 0 0
BITMAP
728A
728A
728A
728A
728A
76DD
2FB8
ENDCHAR
STARTCHAR X
ENCODING 88
SWIDTH 608 0
DWIDTH 6 0
BBX 6 7 0 0
BITMAP
B0E0
3AD0
1F80
0F00
1F80
3AD0
B0E0
ENDCHAR
STARTCHAR Y
ENCODING 89
SWIDTH 620 0
DWIDTH 6 0
BBX 6 7 0 0
BITMAP
A0B0
A0B0
A0B0
7AD0
1F40
0A00
0A00
ENDCHAR
STARTCHAR Z
ENCODING 90
SWIDTH 586 0
DWIDTH 6 0
BBX 6 7 0 0
BITMAP
BFD0
57C0
0740
0E00
1D00
3D50
BFE0
ENDCHAR
STARTCHAR bracketleft
ENCODING 91
SWIDTH 380 0
DWIDTH 4 0
BBX 4 9 0 -1
BITMAP
7D
75
70
70
70
70
70
75
7D
ENDCHAR
STARTCHAR backslash
ENCODING 92
SWIDTH 490 0
DWIDTH 5 0
BBX 5 7 0 0
BITMAP
B000
3400
2800
1D00
0E00
0700
0340
ENDCHAR
STARTCHAR bracketright
ENCODING 93
SWIDTH 380 0
DWIDTH 4 0
BBX 4 9 0 -1
BITMAP
BD
6D
1D
1D
1D
1D
1D
6D
BD
ENDCHAR
STARTCHAR asciicircum
ENCODING 94
SWIDTH 293 0
DWIDTH 3 0
BBX 3 2 0 5
BITMAP
60
A8
ENDCHAR
STARTCHAR underscore
ENCODING 95
SWIDTH 598 0
DWIDTH 6 0
BBX 4 2 1 -3
BITMAP
FF
55
ENDCHAR
STARTCHAR grave
ENCODING 96
SWIDTH 225 0
DWIDTH 2 0
BBX 2 2 0 5
BITMAP
90
70
ENDCHAR
STARTCHAR a
ENCODING 97
SWIDTH 607 0
DWIDTH 6 0
BBX 6 6 0 0
BITMAP
0500
3FA0
A1E0
A0A0
B5E0
2FA0
ENDCHAR
STARTCHAR b
ENCODING 98
SWIDTH 597 0
DWIDTH 6 0
BBX 6 8 0 0
BITMAP
5000
A000
A500
BFC0
B0E0
A0A0
75D0
2F80
ENDCHAR
STARTCHAR c
ENCODING 99
SWIDTH 521 0
DWIDTH 5 0
BBX 5 6 0 0
BITMAP
0500
3F80
B040
A000
B580
2F80
ENDCHAR
STARTCHAR d
ENCODING 100
SWIDTH 606 0
DWIDTH 6 0
BBX 6 8 0 0
BITMAP
0050
00A0
05A0
3FE0
A1E0
A0E0
75E0
2FA0
ENDCHAR
STARTCHAR e
ENCODING 101
SWIDTH 524 0
DWIDTH 5 0
BBX 5 6 0 0
BITMAP
0500
3F80
A740
AE00
7D80
2F80
ENDCHAR
STARTCHAR f
ENCODING 102
SWIDTH 395 0
DWIDTH 4 0
BBX 4 8 0 0
BITMAP
0A
3A
75
BF
74
34
34
34
ENDCHAR
STARTCHAR g
ENCODING 103
SWIDTH 607 0
DWIDTH 6 0
BBX 6 8 0 -2
BITMAP
0500
3FA0
A1E0
A0A0
B5E0
2FE0
06D0
0B40
ENDCHAR
STARTCHAR h
ENCODING 104
SWIDTH 562 0
DWIDTH 6 0
BBX 6 8 0 0
BITMAP
1000
7000
7500
7F80
71C0
70D0
70D0
70D0
ENDCHAR
STARTCHAR i
ENCODING 105
SWIDTH 235 0
DWIDTH 2 0
BBX 2 8 0 0
BITMAP
50
B0
10
70
70
70
70
70
ENDCHAR
STARTCHAR j
ENCODING 106
SWIDTH 237 0
DWIDTH 2 0
BBX 4 10 -2 -2
BITMAP
05
0B
01
07
07
07
07
0B
1E
78
ENDCHAR
STARTCHAR k
ENCODING 107
SWIDTH 539 0
DWIDTH 5 0
BBX 5 8 0 0
BITMAP
1000
7000
7040
7280
7B00
7F00
7B80
71C0
ENDCHAR
STARTCHAR l
ENCODING 108
SWIDTH 235 0
DWIDTH 2 0
BBX 2 8 0 0
BITMAP
10
70
70
70
70
70
70
70
ENDCHAR
STARTCHAR m
ENCODING 109
SWIDTH 762 0
DWIDTH 8 0
BBX 7 6 0 0
BITMAP
0450
7FF8
739C
729C
729C
729C
ENDCHAR
STARTCHAR n
ENCODING 110
SWIDTH 562 0
DWIDTH 6 0
BBX 6 6 0 0
BITMAP
0500
7F80
71C0
70D0
70D0
70D0
ENDCHAR
STARTCHAR o
ENCODING 111
SWIDTH 579 0
DWIDTH 6 0
BBX 6 6 0 0
BITMAP
0500
3F80
B0D0
A0E0
75D0
2F40
ENDCHAR
STARTCHAR p
ENCODING 112
SWIDTH 608 0
DWIDTH 6 0
BBX 6 8 0 -2
BITMAP
0500
6FD0
74A0
70A0
79E0
7F80
7000
7000
ENDCHAR
STARTCHAR q
ENCODING 113
SWIDTH 607 0
DWIDTH 6 0
BBX 6 8 0 -2
BITMAP
0500
3FA0
A1E0
A0A0
75E0
2FE0
00A0
00A0
ENDCHAR
STARTCHAR r
ENCODING 114
SWIDTH 414 0
DWIDTH 4 0
BBX 4 6 0 0
BITMAP
01
6F
74
70
70
70
ENDCHAR
STARTCHAR s
ENCODING 115
SWIDTH 523 0
DWIDTH 5 0
BBX 5 6 0 0
BITMAP
0500
7F80
B500
7F80
56C0
BF40
ENDCHAR
STARTCHAR t
ENCODING 116
SWIDTH 437 0
DWIDTH 4 0
BBX 4 8 0 0
BITMAP
10
70
75
FF
74
70
39
1F
ENDCHAR
STARTCHAR u
ENCODING 117
SWIDTH 562 0
DWIDTH 6 0
BBX 5 6 0 0
BITMAP
1040
A1C0
A1C0
A1C0
76C0
2F80
ENDCHAR
STARTCHAR v
ENCODING 118
SWIDTH 532 0
DWIDTH 5 0
BBX 5 6 0 0
BITMAP
4040
A1C0
7280
3B40
2F00
1E00
ENDCHAR
STARTCHAR w
ENCODING 119
SWIDTH 756 0
DWIDTH 8 0
BBX 7 6 0 0
BITMAP
1104
A35C
A35C
A35C
77AC
2EF4
ENDCHAR
STARTCHAR x
ENCODING 120
SWIDTH 528 0
DWIDTH 5 0
BBX 5 6 0 0
BITMAP
5040
7680
2F00
1E00
3B40
B2C0
ENDCHAR
STARTCHAR y
ENCODING 121
SWIDTH 562 0
DWIDTH 6 0
BBX 5 8 0 -2
BITMAP
1040
A1C0
A1C0
A1C0
76C0
2FC0
0680
1E00
ENDCHAR
STARTCHAR z
ENCODING 122
SWIDTH 481 0
DWIDTH 5 0
BBX 5 6 0 0
BITMAP
1500
BF40
0A00
1C00
3940
7F80
ENDCHAR
STARTCHAR braceleft
ENCODING 123
SWIDTH 466 0
DWIDTH 5 0
BBX 5 9 0 -1
BITMAP
1F40
2D00
2C00
6800
B400
2C00
2C00
1D00
1F40
ENDCHAR
STARTCHAR bar
ENCODING 124
SWIDTH 267 0
DWIDTH 3 0
BBX 2 9 0 -1
BITMAP
70
70
70
70
70
70
70
70
70
ENDCHAR
STARTCHAR braceright
ENCODING 125
SWIDTH 466 0
DWIDTH 5 0
BBX 5 9 0 -1
BITMAP
B800
6C00
1D00
0D00
0B40
1D00
1D00
6C00
B800
ENDCHAR
STARTCHAR asciitilde
ENCODING 126
SWIDTH 451 0
DWIDTH 5 0
BBX 4 2 0 3
BITMAP
26
7F
ENDCHAR
STARTCHAR nonbreakingspace
ENCODING 160
SWIDTH 279 0
DWIDTH 3 0
BBX 1 1 0 0
BITMAP
00
ENDCHAR
STARTCHAR exclamdown
ENCODING 161
SWIDTH 274 0
DWIDTH 3 0
BBX 2 8 0 -2
BITMAP
70
60
60
70
70
70
70
50
ENDCHAR
STARTCHAR cent
ENCODING 162
SWIDTH 462 0
DWIDTH 5 0
BBX 4 7 0 0
BITMAP
0C
2E
76
A0
7A
1D
0C
ENDCHAR
STARTCHAR sterling
ENCODING 163
SWIDTH 681 0
DWIDTH 7 0
BBX 7 7 0 0
BITMAP
0B00
2D00
2800
BE00
6900
2974
2FE0
ENDCHAR
STARTCHAR currency
ENCODING 164
SWIDTH 454 0
DWIDTH 5 0
BBX 4 5 0 1
BITMAP
01
7B
62
7B
55
ENDCHAR
STARTCHAR yen
ENCODING 165
SWIDTH 653 0
DWIDTH 7 0
BBX 6 7 0 0
BITMAP
B070
B070
7070
3AE0
2FE0
6FA0
0700
ENDCHAR
STARTCHAR brokenbar
ENCODING 166
SWIDTH 269 0
DWIDTH 3 0
BBX 2 9 0 -1
BITMAP
70
70
70
70
00
70
70
70
70
ENDCHAR
STARTCHAR section
ENCODING 167
SWIDTH 569 0
DWIDTH 6 0
BBX 6 7 0 0
BITMAP
2FC0
7540
7F80
75D0
3FC0
16D0
7F80
ENDCHAR
STARTCHAR dieresis
ENCODING 168
SWIDTH 300 0
DWIDTH 3 0
BBX 3 2 0 5
BITMAP
44
98
ENDCHAR
STARTCHAR copyright
ENCODING 169
SWIDTH 655 0
DWIDTH 7 0
BBX 6 7 0 0
BITMAP
0500
2A90
6A60
A420
6960
2A90
0500
ENDCHAR
STARTCHAR ordfeminine
ENCODING 170
SWIDTH 451 0
DWIDTH 5 0
BBX 4 5 0 2
BITMAP
2A
52
2A
14
69
ENDCHAR
STARTCHAR guillemotleft
ENCODING 171
SWIDTH 704 0
DWIDTH 7 0
BBX 7 5 0 0
BITMAP
0924
28A0
B5D0
2DB4
0924
ENDCHAR
STARTCHAR logicalnot
ENCODING 172
SWIDTH 529 0
DWIDTH 5 0
BBX 5 3 0 2
BITMAP
1500
7F80
0280
ENDCHAR
STARTCHAR uni00AD
ENCODING 173
SWIDTH 418 0
DWIDTH 4 0
BBX 4 2 0 3
BITMAP
14
7E
ENDCHAR
STARTCHAR registered
ENCODING 174
SWIDTH 439 0
DWIDTH 4 0
BBX 4 4 0 3
BITMAP
29
56
6A
14
ENDCHAR
STARTCHAR macron
ENCODING 175
SWIDTH 247 0
DWIDTH 2 0
BBX 3 2 0 5
BITMAP
54
A4
ENDCHAR
STARTCHAR degree
ENCODING 176
SWIDTH 381 0
DWIDTH 4 0
BBX 4 3 0 4
BITMAP
28
A9
7D
ENDCHAR
STARTCHAR plusminus
ENCODING 177
SWIDTH 516 0
DWIDTH 5 0
BBX 5 6 0 0
BITMAP
0400
1D00
7F80
1D00
1940
7F80
ENDCHAR
STARTCHAR twosuperior
ENCODING 178
SWIDTH 355 0
DWIDTH 4 0
BBX 3 4 0 3
BITMAP
78
2C
78
54
ENDCHAR
STARTCHAR threesuperior
ENCODING 179
SWIDTH 354 0
DWIDTH 4 0
BBX 3 4 0 3
BITMAP
78
2C
6C
54
ENDCHAR
STARTCHAR acute
ENCODING 180
SWIDTH 225 0
DWIDTH 2 0
BBX 2 2 0 5
BITMAP
60
A0
ENDCHAR
STARTCHAR mu
ENCODING 181
SWIDTH 571 0
DWIDTH 6 0
BBX 6 8 0 -2
BITMAP
1040
70D0
70D0
70D0
76D0
7F90
6000
6000
ENDCHAR
STARTCHAR paragraph
ENCODING 182
SWIDTH 808 0
DWIDTH 8 0
BBX 8 7 0 0
BITMAP
1FFD
7ADD
B28D
728D
3F8D
078D
028D
ENDCHAR
STARTCHAR periodcentered
ENCODING 183
SWIDTH 261 0
DWIDTH 3 0
BBX 2 3 0 2
BITMAP
10
70
10
ENDCHAR
STARTCHAR cedilla
ENCODING 184
SWIDTH 208 0
DWIDTH 2 0
BBX 2 2 0 -2
BITMAP
60
B0
ENDCHAR
STARTCHAR onesuperior
ENCODING 185
SWIDTH 231 0
DWIDTH 2 0
BBX 2 4 0 3
BITMAP
A0
60
60
10
ENDCHAR
STARTCHAR ordmasculine
ENCODING 186
SWIDTH 432 0
DWIDTH 4 0
BBX 4 5 0 2
BITMAP
29
52
29
14
69
ENDCHAR
STARTCHAR guillemotright
ENCODING 187
SWIDTH 703 0
DWIDTH 7 0
BBX 7 5 0 0
BITMAP
6180
28A0
1E78
39E0
6180
ENDCHAR
STARTCHAR onequarter
ENCODING 188
SWIDTH 648 0
DWIDTH 6 0
BBX 6 7 0 0
BITMAP
70C0
3240
3700
1A40
19A0
26B0
6170
ENDCHAR
STARTCHAR onehalf
ENCODING 189
SWIDTH 637 0
DWIDTH 6 0
BBX 6 7 0 0
BITMAP
70C0
3240
3700
1A50
19B0
25D0
62F0
ENDCHAR
STARTCHAR threequarters
ENCODING 190
SWIDTH 708 0
DWIDTH 7 0
BBX 7 7 0 0
BITMAP
B860
2CC0
6E80
5740
09E4
1CE8
2468
ENDCHAR
STARTCHAR questiondown
ENCODING 191
SWIDTH 602 0
DWIDTH 6 0
BBX 6 8 0 -2
BITMAP
0240
0240
0340
2B40
7900
A000
7FE0
0550
ENDCHAR
STARTCHAR Agrave
ENCODING 192
SWIDTH 673 0
DWIDTH 7 0
BBX 7 10 0 0
BITMAP
0800
0A00
0000
1B80
39E0
7070
7074
7AF4
7AB4
7074
ENDCHAR
STARTCHAR Aacute
ENCODING 193
SWIDTH 673 0
DWIDTH 7 0
BBX 7 10 0 0
BITMAP
0180
0340
0000
1B80
39E0
7070
7074
7AF4
7AB4
7074
ENDCHAR
STARTCHAR Acircumflex
ENCODING 194
SWIDTH 673 0
DWIDTH 7 0
BBX 7 9 0 0
BITMAP
0600
0A40
1B80
39E0
7070
7074
7AF4
7AB4
7074
ENDCHAR
STARTCHAR Atilde
ENCODING 195
SWIDTH 673 0
DWIDTH 7 0
BBX 7 9 0 0
BITMAP
0A80
0980
1B80
39E0
7070
7074
7AF4
7AB4
7074
ENDCHAR
STARTCHAR Adieresis
ENCODING 196
SWIDTH 673 0
DWIDTH 7 0
BBX 7 9 0 0
BITMAP
0440
0980
1B80
39E0
7070
7074
7AF4
7AB4
7074
ENDCHAR
STARTCHAR Aring
ENCODING 197
SWIDTH 673 0
DWIDTH 7 0
BBX 7 9 0 0
BITMAP
0600
0A40
1F80
39E0
7070
7074
7AF4
7AB4
7074
ENDCHAR
STARTCHAR AE
ENCODING 198
SWIDTH 988 0
DWIDTH 10 0
BBX 10 7 0 0
BITMAP
1BFFE0
39B950
707500
707F40
7AF500
7AB950
707FE0
ENDCHAR
STARTCHAR Ccedilla
ENCODING 199
SWIDTH 640 0
DWIDTH 6 0
BBX 6 10 0 -3
BITMAP
1BE0
3960
B000
A000
B000
3960
1BE0
0300
0740
0100
ENDCHAR
STARTCHAR Egrave
ENCODING 200
SWIDTH 578 0
DWIDTH 6 0
BBX 6 9 0 0
BITMAP
1800
0900
7FD0
7550
7500
7F40
7500
7550
7FD0
ENDCHAR
STARTCHAR Eacute
ENCODING 201
SWIDTH 578 0
DWIDTH 6 0
BBX 6 10 0 0
BITMAP
0240
0640
0000
7FD0
7550
7500
7F40
7500
7550
7FD0
ENDCHAR
STARTCHAR Ecircumflex
ENCODING 202
SWIDTH 578 0
DWIDTH 6 0
BBX 6 9 0 0
BITMAP
0600
0A00
7FD0
7550
7500
7F40
7500
7550
7FD0
ENDCHAR
STARTCHAR Edieresis
ENCODING 203
SWIDTH 578 0
DWIDTH 6 0
BBX 6 9 0 0
BITMAP
0540
1540
7FD0
7550
7500
7F40
7500
7550
7FD0
ENDCHAR
STARTCHAR Igrave
ENCODING 204
SWIDTH 270 0
DWIDTH 3 0
BBX 2 9 0 0
BITMAP
80
A0
70
70
70
70
70
70
70
ENDCHAR
STARTCHAR Iacute
ENCODING 205
SWIDTH 270 0
DWIDTH 3 0
BBX 3 10 0 0
BITMAP
18
34
00
70
70
70
70
70
70
70
ENDCHAR
STARTCHAR Icircumflex
ENCODING 206
SWIDTH 270 0
DWIDTH 3 0
BBX 3 9 0 0
BITMAP
60
A4
70
70
70
70
70
70
70
ENDCHAR
STARTCHAR Idieresis
ENCODING 207
SWIDTH 270 0
DWIDTH 3 0
BBX 3 9 0 0
BITMAP
44
98
70
70
70
70
70
70
70
ENDCHAR
STARTCHAR Eth
ENCODING 208
SWIDTH 672 0
DWIDTH 7 0
BBX 7 7 0 0
BITMAP
3F80
3AE0
7474
FC34
7474
3AE0
3F80
ENDCHAR
STARTCHAR Ntilde
ENCODING 209
SWIDTH 689 0
DWIDTH 7 0
BBX 7 9 0 0
BITMAP
0A80
0980
7434
7C34
7E34
7774
72F4
70F4
70B4
ENDCHAR
STARTCHAR Ograve
ENCODING 210
SWIDTH 777 0
DWIDTH 8 0
BBX 8 10 0 0
BITMAP
0500
0740
0000
1BE0
3978
B01D
A00D
B01D
397C
1FE0
ENDCHAR
STARTCHAR Oacute
ENCODING 211
SWIDTH 777 0
DWIDTH 8 0
BBX 8 10 0 0
BITMAP
0090
0180
0000
1BE0
3978
B01D
A00D
B01D
397C
1FE0
ENDCHAR
STARTCHAR Ocircumflex
ENCODING 212
SWIDTH 777 0
DWIDTH 8 0
BBX 8 9 0 0
BITMAP
0240
0680
1BE0
3978
B01D
A00D
B01D
397C
1FE0
ENDCHAR
STARTCHAR Otilde
ENCODING 213
SWIDTH 777 0
DWIDTH 8 0
BBX 8 9 0 0
BITMAP
0690
0990
1BE0
3978
B01D
A00D
B01D
397C
1FE0
ENDCHAR
STARTCHAR Odieresis
ENCODING 214
SWIDTH 777 0
DWIDTH 8 0
BBX 8 9 0 0
BITMAP
0540
0590
1BE0
3978
B01D
A00D
B01D
397C
1FE0
ENDCHAR
STARTCHAR multiply
ENCODING 215
SWIDTH 479 0
DWIDTH 5 0
BBX 4 4 0 2
BITMAP
11
7B
2E
7B
ENDCHAR
STARTCHAR Oslash
ENCODING 216
SWIDTH 777 0
DWIDTH 8 0
BBX 8 7 0 0
BITMAP
1BF8
39B8
B0DD
A28D
BA1D
3D7C
3FE0
ENDCHAR
STARTCHAR Ugrave
ENCODING 217
SWIDTH 673 0
DWIDTH 7 0
BBX 7 9 0 0
BITMAP
0800
0A00
7074
7074
7074
7074
7070
39E0
1B80
ENDCHAR
STARTCHAR Uacute
ENCODING 218
SWIDTH 673 0
DWIDTH 7 0
BBX 7 10 0 0
BITMAP
0180
0240
0000
7074
7074
7074
7074
7070
39E0
1B80
ENDCHAR
STARTCHAR Ucircumflex
ENCODING 219
SWIDTH 673 0
DWIDTH 7 0
BBX 7 9 0 0
BITMAP
0600
0A40
7074
7074
7074
7074
7070
39E0
1B80
ENDCHAR
STARTCHAR Udieresis
ENCODING 220
SWIDTH 673 0
DWIDTH 7 0
BBX 7 9 0 0
BITMAP
0440
0980
7074
7074
7074
7074
7070
39E0
1B80
ENDCHAR
STARTCHAR Yacute
ENCODING 221
SWIDTH 620 0
DWIDTH 6 0
BBX 6 9 0 0
BITMAP
0240
0740
A0B0
A0B0
A0B0
7AD0
1F40
0A00
0A00
ENDCHAR
STARTCHAR Thorn
ENCODING 222
SWIDTH 637 0
DWIDTH 6 0
BBX 7 9 0 -1
BITMAP
1000
7500
7FD0
70B0
7074
70B0
7FD0
7500
1000
ENDCHAR
STARTCHAR germandbls
ENCODING 223
SWIDTH 813 0
DWIDTH 8 0
BBX 8 8 0 0
BITMAP
0A90
3AB4
7474
B6E0
7794
36FE
355B
36FD
ENDCHAR
STARTCHAR agrave
ENCODING 224
SWIDTH 607 0
DWIDTH 6 0
BBX 6 8 0 0
BITMAP
1800
1900
0500
3FA0
A1E0
A0A0
B5E0
2FA0
ENDCHAR
STARTCHAR aacute
ENCODING 225
SWIDTH 607 0
DWIDTH 6 0
BBX 6 8 0 0
BITMAP
0240
0600
0500
3FA0
A1E0
A0A0
B5E0
2FA0
ENDCHAR
STARTCHAR acircumflex
ENCODING 226
SWIDTH 607 0
DWIDTH 6 0
BBX 6 8 0 0
BITMAP
0900
1A00
0500
3FA0
A1E0
A0A0
B5E0
2FA0
ENDCHAR
STARTCHAR atilde
ENCODING 227
SWIDTH 607 0
DWIDTH 6 0
BBX 6 8 0 0
BITMAP
1A40
2640
0500
3FA0
A1E0
A0A0
B5E0
2FA0
ENDCHAR
STARTCHAR adieresis
ENCODING 228
SWIDTH 607 0
DWIDTH 6 0
BBX 6 7 0 0
BITMAP
1500
1A40
3FA0
A1E0
A0A0
B5E0
2FA0
ENDCHAR
STARTCHAR aring
ENCODING 229
SWIDTH 607 0
DWIDTH 6 0
BBX 6 8 0 0
BITMAP
0A00
0900
0500
3FA0
A1E0
A0A0
B5E0
2FA0
ENDCHAR
STARTCHAR ae
ENCODING 230
SWIDTH 976 0
DWIDTH 10 0
BBX 10 6 0 0
BITMAP
050540
3FBFD0
A1F6C0
A0B700
B5FE90
2FAFD0
ENDCHAR
STARTCHAR ccedilla
ENCODING 231
SWIDTH 521 0
DWIDTH 5 0
BBX 5 9 0 -3
BITMAP
0500
3F80
B040
A000
B580
2F80
0900
1A00
0400
ENDCHAR
STARTCHAR egrave
ENCODING 232
SWIDTH 524 0
DWIDTH 5 0
BBX 5 8 0 0
BITMAP
1400
1C00
0500
3F80
A740
AE00
7D80
2F80
ENDCHAR
STARTCHAR eacute
ENCODING 233
SWIDTH 524 0
DWIDTH 5 0
BBX 5 8 0 0
BITMAP
0240
0600
0500
3F80
A740
AE00
7D80
2F80
ENDCHAR
STARTCHAR ecircumflex
ENCODING 234
SWIDTH 524 0
DWIDTH 5 0
BBX 5 8 0 0
BITMAP
0900
1A00
0500
3F80
A740
AE00
7D80
2F80
ENDCHAR
STARTCHAR edieresis
ENCODING 235
SWIDTH 524 0
DWIDTH 5 0
BBX 5 8 0 0
BITMAP
1100
2600
0500
3F80
A740
AE00
7D80
2F80
ENDCHAR
STARTCHAR igrave
ENCODING 236
SWIDTH 235 0
DWIDTH 2 0
BBX 2 8 0 0
BITMAP
80
90
10
70
70
70
70
70
ENDCHAR
STARTCHAR iacute
ENCODING 237
SWIDTH 235 0
DWIDTH 2 0
BBX 3 8 0 0
BITMAP
14
34
10
70
70
70
70
70
ENDCHAR
STARTCHAR icircumflex
ENCODING 238
SWIDTH 235 0
DWIDTH 2 0
BBX 3 8 0 0
BITMAP
60
A4
10
70
70
70
70
70
ENDCHAR
STARTCHAR idieresis
ENCODING 239
SWIDTH 235 0
DWIDTH 2 0
BBX 3 7 0 0
BITMAP
54
94
70
70
70
70
70
ENDCHAR
STARTCHAR eth
ENCODING 240
SWIDTH 581 0
DWIDTH 6 0
BBX 6 8 0 0
BITMAP
0600
2FD0
0780
3FC0
B0D0
A0E0
75D0
2F40
ENDCHAR
STARTCHAR ntilde
ENCODING 241
SWIDTH 562 0
DWIDTH 6 0
BBX 6 7 0 0
BITMAP
1A40
2B00
7F80
71C0
70D0
70D0
70D0
ENDCHAR
STARTCHAR ograve
ENCODING 242
SWIDTH 579 0
DWIDTH 6 0
BBX 6 8 0 0
BITMAP
1400
1D00
0500
3F80
B0D0
A0E0
75D0
2F40
ENDCHAR
STARTCHAR oacute
ENCODING 243
SWIDTH 579 0
DWIDTH 6 0
BBX 6 8 0 0
BITMAP
0240
0600
0500
3F80
B0D0
A0E0
75D0
2F40
ENDCHAR
STARTCHAR ocircumflex
ENCODING 244
SWIDTH 579 0
DWIDTH 6 0
BBX 6 8 0 0
BITMAP
0900
1A00
0500
3F80
B0D0
A0E0
75D0
2F40
ENDCHAR
STARTCHAR otilde
ENCODING 245
SWIDTH 579 0
DWIDTH 6 0
BBX 6 8 0 0
BITMAP
1A40
2640
0500
3F80
B0D0
A0E0
75D0
2F40
ENDCHAR
STARTCHAR odieresis
ENCODING 246
SWIDTH 579 0
DWIDTH 6 0
BBX 6 7 0 0
BITMAP
1500
1A40
3F80
B0D0
A0E0
75D0
2F40
ENDCHAR
STARTCHAR divide
ENCODING 247
SWIDTH 494 0
DWIDTH 5 0
BBX 5 5 0 1
BITMAP
0C00
1900
BF80
1800
0800
ENDCHAR
STARTCHAR oslash
ENCODING 248
SWIDTH 579 0
DWIDTH 6 0
BBX 6 6 0 0
BITMAP
0540
3FC0
B7D0
A9E0
7DD0
7F40
ENDCHAR
STARTCHAR ugrave
ENCODING 249
SWIDTH 562 0
DWIDTH 6 0
BBX 5 8 0 0
BITMAP
2400
1C00
1040
A1C0
A1C0
A1C0
76C0
2F80
ENDCHAR
STARTCHAR uacute
ENCODING 250
SWIDTH 562 0
DWIDTH 6 0
BBX 5 8 0 0
BITMAP
0200
0A00
1040
A1C0
A1C0
A1C0
76C0
2F80
ENDCHAR
STARTCHAR ucircumflex
ENCODING 251
SWIDTH 562 0
DWIDTH 6 0
BBX 5 8 0 0
BITMAP
0900
1A00
1040
A1C0
A1C0
A1C0
76C0
2F80
ENDCHAR
STARTCHAR udieresis
ENCODING 252
SWIDTH 562 0
DWIDTH 6 0
BBX 5 7 0 0
BITMAP
1500
2640
A1C0
A1C0
A1C0
76C0
2F80
ENDCHAR
STARTCHAR yacute
ENCODING 253
SWIDTH 562 0
DWIDTH 6 0
BBX 5 10 0 -2
BITMAP
0200
0A00
1040
A1C0
A1C0
A1C0
76C0
2FC0
0680
1E00
ENDCHAR
STARTCHAR thorn
ENCODING 254
SWIDTH 608 0
DWIDTH 6 0
BBX 6 10 0 -2
BITMAP
5000
7000
7500
7FD0
74A0
70A0
79E0
7F80
7000
7000
ENDCHAR
STARTCHAR ydieresis
ENCODING 255
SWIDTH 562 0
DWIDTH 6 0
BBX 5 9 0 -2
BITMAP
1500
2640
A1C0
A1C0
A1C0
76C0
2FC0
0680
1E00
ENDCHAR
STARTCHAR Amacron
ENCODING 256
SWIDTH 673 0
DWIDTH 7 0
BBX 7 9 0 0
BITMAP
0540
0A40
1B80
39E0
7070
7074
7AF4
7AB4
7074
ENDCHAR
STARTCHAR amacron
ENCODING 257
SWIDTH 607 0
DWIDTH 6 0
BBX 6 8 0 0
BITMAP
0500
1A00
0500
3FA0
A1E0
A0A0
B5E0
2FA0
ENDCHAR
STARTCHAR Abreve
ENCODING 258
SWIDTH 673 0
DWIDTH 7 0
BBX 7 9 0 0
BITMAP
0A40
0600
1B80
39E0
7070
7074
7AF4
7AB4
7074
ENDCHAR
STARTCHAR abreve
ENCODING 259
SWIDTH 607 0
DWIDTH 6 0
BBX 6 7 0 0
BITMAP
1A00
0E00
3FA0
A1E0
A0A0
B5E0
2FA0
ENDCHAR
STARTCHAR Aogonek
ENCODING 260
SWIDTH 673 0
DWIDTH 7 0
BBX 7 9 0 -2
BITMAP
1B80
39E0
7070
7074
7AF4
7AB4
7074
0060
0064
ENDCHAR
STARTCHAR aogonek
ENCODING 261
SWIDTH 607 0
DWIDTH 6 0
BBX 6 8 0 -2
BITMAP
0500
3FA0
A1E0
A0A0
B5E0
2FA0
0090
0060
ENDCHAR
STARTCHAR Cacute
ENCODING 262
SWIDTH 640 0
DWIDTH 6 0
BBX 6 10 0 0
BITMAP
0080
0280
0000
1BE0
3960
B000
A000
B000
3960
1FE0
ENDCHAR
STARTCHAR cacute
ENCODING 263
SWIDTH 521 0
DWIDTH 5 0
BBX 5 8 0 0
BITMAP
0200
0A00
0500
3F80
B040
A000
B580
2F80
ENDCHAR
STARTCHAR Ccircumflex
ENCODING 264
SWIDTH 640 0
DWIDTH 6 0
BBX 6 9 0 0
BITMAP
0240
0680
1BE0
3960
B000
A000
B000
3960
1FE0
ENDCHAR
STARTCHAR ccircumflex
ENCODING 265
SWIDTH 521 0
DWIDTH 5 0
BBX 5 8 0 0
BITMAP
0900
1A00
0500
3F80
B040
A000
B580
2F80
ENDCHAR
STARTCHAR Cdotaccent
ENCODING 266
SWIDTH 640 0
DWIDTH 6 0
BBX 6 9 0 0
BITMAP
0140
0140
1BE0
3960
B000
A000
B000
3960
1FE0
ENDCHAR
STARTCHAR cdotaccent
ENCODING 267
SWIDTH 521 0
DWIDTH 5 0
BBX 5 8 0 0
BITMAP
0500
0500
0500
3F80
B040
A000
B580
2F80
ENDCHAR
STARTCHAR Ccaron
ENCODING 268
SWIDTH 640 0
DWIDTH 6 0
BBX 6 9 0 0
BITMAP
0680
0240
1BE0
3960
B000
A000
B000
3960
1FE0
ENDCHAR
STARTCHAR ccaron
ENCODING 269
SWIDTH 521 0
DWIDTH 5 0
BBX 5 8 0 0
BITMAP
1A00
0500
0500
3F80
B040
A000
B580
2F80
ENDCHAR
STARTCHAR Dcaron
ENCODING 270
SWIDTH 653 0
DWIDTH 7 0
BBX 7 9 0 0
BITMAP
0A40
0600
7F40
76E0
7070
7074
7070
76E0
7F80
ENDCHAR
STARTCHAR dcaron
ENCODING 271
SWIDTH 740 0
DWIDTH 7 0
BBX 8 8 0 0
BITMAP
0050
00A9
05A9
3FE0
A1E0
A0E0
75E0
2FA0
ENDCHAR
STARTCHAR Dcroat
ENCODING 272
SWIDTH 672 0
DWIDTH 7 0
BBX 7 7 0 0
BITMAP
3F80
3AE0
7474
FC34
7474
3AE0
3F80
ENDCHAR
STARTCHAR dcroat
ENCODING 273
SWIDTH 606 0
DWIDTH 6 0
BBX 6 8 0 0
BITMAP
0050
01F0
05E0
3FE0
A1E0
A0E0
75E0
2FA0
ENDCHAR
STARTCHAR Emacron
ENCODING 274
SWIDTH 578 0
DWIDTH 6 0
BBX 6 9 0 0
BITMAP
0500
0A40
7FD0
7550
7500
7F40
7500
7550
7FD0
ENDCHAR
STARTCHAR emacron
ENCODING 275
SWIDTH 524 0
DWIDTH 5 0
BBX 5 8 0 0
BITMAP
0500
1A00
0500
3F80
A740
AE00
7D80
2F80
ENDCHAR
STARTCHAR Ebreve
ENCODING 276
SWIDTH 578 0
DWIDTH 6 0
BBX 6 9 0 0
BITMAP
0A00
0500
7FD0
7550
7500
7F40
7500
7550
7FD0
ENDCHAR
STARTCHAR ebreve
ENCODING 277
SWIDTH 524 0
DWIDTH 5 0
BBX 5 7 0 0
BITMAP
1A00
0E00
3F80
A740
AE00
7D80
2F80
ENDCHAR
STARTCHAR Edotaccent
ENCODING 278
SWIDTH 578 0
DWIDTH 6 0
BBX 6 9 0 0
BITMAP
0500
0500
7FD0
7550
7500
7F40
7500
7550
7FD0
ENDCHAR
STARTCHAR edotaccent
ENCODING 279
SWIDTH 524 0
DWIDTH 5 0
BBX 5 8 0 0
BITMAP
0500
0500
0500
3F80
A740
AE00
7D80
2F80
ENDCHAR
STARTCHAR Eogonek
ENCODING 280
SWIDTH 578 0
DWIDTH 6 0
BBX 6 9 0 -2
BITMAP
7FD0
7550
7500
7F40
7500
7550
7FD0
0280
0180
ENDCHAR
STARTCHAR eogonek
ENCODING 281
SWIDTH 524 0
DWIDTH 5 0
BBX 5 8 0 -2
BITMAP
0500
3F80
A740
AE00
7D80
2F80
0600
0240
ENDCHAR
STARTCHAR Ecaron
ENCODING 282
SWIDTH 578 0
DWIDTH 6 0
BBX 6 9 0 0
BITMAP
0A40
0500
7FD0
7550
7500
7F40
7500
7550
7FD0
ENDCHAR
STARTCHAR ecaron
ENCODING 283
SWIDTH 524 0
DWIDTH 5 0
BBX 5 8 0 0
BITMAP
1A00
0900
0500
3F80
A740
AE00
7D80
2F80
ENDCHAR
STARTCHAR Gcircumflex
ENCODING 284
SWIDTH 665 0
DWIDTH 7 0
BBX 7 9 0 0
BITMAP
0240
0680
1BE0
3960
B000
A010
B034
3974
1FE0
ENDCHAR
STARTCHAR gcircumflex
ENCODING 285
SWIDTH 607 0
DWIDTH 6 0
BBX 6 10 0 -2
BITMAP
0900
1A00
0500
3FA0
A1E0
A0A0
B5E0
2FE0
06D0
0B40
ENDCHAR
STARTCHAR Gbreve
ENCODING 286
SWIDTH 665 0
DWIDTH 7 0
BBX 7 9 0 0
BITMAP
0680
0240
1BE0
3960
B000
A010
B034
3974
1FE0
ENDCHAR
STARTCHAR gbreve
ENCODING 287
SWIDTH 607 0
DWIDTH 6 0
BBX 6 9 0 -2
BITMAP
0A00
0E00
3FA0
A1E0
A0A0
B5E0
2FE0
06D0
0B40
ENDCHAR
STARTCHAR Gdotaccent
ENCODING 288
SWIDTH 665 0
DWIDTH 7 0
BBX 7 9 0 0
BITMAP
0100
0200
1BE0
3960
B000
A010
B034
3974
1FE0
ENDCHAR
STARTCHAR gdotaccent
ENCODING 289
SWIDTH 607 0
DWIDTH 6 0
BBX 6 9 0 -2
BITMAP
0500
0A00
3FA0
A1E0
A0A0
B5E0
2FE0
06D0
0B40
ENDCHAR
STARTCHAR Gcommaaccent
ENCODING 290
SWIDTH 665 0
DWIDTH 7 0
BBX 7 10 0 -3
BITMAP
1BE0
3960
B000
A010
B034
3974
1FE0
0100
0240
0100
ENDCHAR
STARTCHAR gcommaaccent
ENCODING 291
SWIDTH 607 0
DWIDTH 6 0
BBX 6 10 0 -2
BITMAP
0900
0500
0500
3FA0
A1E0
A0A0
B5E0
2FE0
06D0
0B40
ENDCHAR
STARTCHAR Hcircumflex
ENCODING 292
SWIDTH 689 0
DWIDTH 7 0
BBX 7 9 0 0
BITMAP
0200
0980
7034
7034
7574
7FF4
7574
7034
7034
ENDCHAR
STARTCHAR hcircumflex
ENCODING 293
SWIDTH 562 0
DWIDTH 6 0
BBX 6 8 0 0
BITMAP
1600
7A40
7500
7F80
71C0
70D0
70D0
70D0
ENDCHAR
STARTCHAR Hbar
ENCODING 294
SWIDTH 689 0
DWIDTH 7 0
BBX 7 7 0 0
BITMAP
7474
FFF8
7574
7FF4
7574
7034
7034
ENDCHAR
STARTCHAR hbar
ENCODING 295
SWIDTH 562 0
DWIDTH 6 0
BBX 6 8 0 0
BITMAP
1000
F400
B500
7F80
71C0
70D0
70D0
70D0
ENDCHAR
STARTCHAR Itilde
ENCODING 296
SWIDTH 270 0
DWIDTH 3 0
BBX 3 9 0 0
BITMAP
A8
A8
70
70
70
70
70
70
70
ENDCHAR
STARTCHAR itilde
ENCODING 297
SWIDTH 235 0
DWIDTH 2 0
BBX 4 7 -1 0
BITMAP
6A
69
1C
1C
1C
1C
1C
ENDCHAR
STARTCHAR Imacron
ENCODING 298
SWIDTH 270 0
DWIDTH 3 0
BBX 3 9 0 0
BITMAP
54
A4
70
70
70
70
70
70
70
ENDCHAR
STARTCHAR imacron
ENCODING 299
SWIDTH 235 0
DWIDTH 2 0
BBX 3 7 0 0
BITMAP
50
B4
70
70
70
70
70
ENDCHAR
STARTCHAR Ibreve
ENCODING 300
SWIDTH 270 0
DWIDTH 3 0
BBX 3 9 0 0
BITMAP
A4
60
70
70
70
70
70
70
70
ENDCHAR
STARTCHAR ibreve
ENCODING 301
SWIDTH 235 0
DWIDTH 2 0
BBX 3 7 0 0
BITMAP
A4
60
70
70
70
70
70
ENDCHAR
STARTCHAR Iogonek
ENCODING 302
SWIDTH 270 0
DWIDTH 3 0
BBX 2 9 0 -2
BITMAP
70
70
70
70
70
70
70
A0
60
ENDCHAR
STARTCHAR iogonek
ENCODING 303
SWIDTH 235 0
DWIDTH 2 0
BBX 2 10 0 -2
BITMAP
50
B0
10
70
70
70
70
70
90
60
ENDCHAR
STARTCHAR Idotaccent
ENCODING 304
SWIDTH 270 0
DWIDTH 3 0
BBX 2 9 0 0
BITMAP
10
20
70
70
70
70
70
70
70
ENDCHAR
STARTCHAR dotlessi
ENCODING 305
SWIDTH 235 0
DWIDTH 2 0
BBX 2 6 0 0
BITMAP
10
70
70
70
70
70
ENDCHAR
STARTCHAR IJ
ENCODING 306
SWIDTH 687 0
DWIDTH 7 0
BBX 7 7 0 0
BITMAP
7034
7034
7034
7034
7074
71B0
7790
ENDCHAR
STARTCHAR ij
ENCODING 307
SWIDTH 474 0
DWIDTH 5 0
BBX 5 10 0 -2
BITMAP
5100
B740
1100
7340
7340
7340
7340
7740
1B00
3900
ENDCHAR
STARTCHAR Jcircumflex
ENCODING 308
SWIDTH 416 0
DWIDTH 4 0
BBX 4 9 0 0
BITMAP
09
1A
0A
0A
0A
0A
0E
6D
F4
ENDCHAR
STARTCHAR jcircumflex
ENCODING 309
SWIDTH 237 0
DWIDTH 2 0
BBX 5 10 -2 -2
BITMAP
0600
0A40
0100
0700
0700
0700
0700
0B00
1E00
7800
ENDCHAR
STARTCHAR Kcommaaccent
ENCODING 310
SWIDTH 625 0
DWIDTH 6 0
BBX 6 10 0 -3
BITMAP
70A0
71C0
7740
7F40
7EC0
75D0
70B0
0500
0600
0100
ENDCHAR
STARTCHAR kcommaaccent
ENCODING 311
SWIDTH 539 0
DWIDTH 5 0
BBX 5 11 0 -3
BITMAP
1000
7000
7040
7280
7B00
7F00
7B80
71C0
0400
0900
0400
ENDCHAR
STARTCHAR kgreenlandic
ENCODING 312
SWIDTH 539 0
DWIDTH 5 0
BBX 5 6 0 0
BITMAP
1040
7280
7B00
7F00
7B80
71C0
ENDCHAR
STARTCHAR Lacute
ENCODING 313
SWIDTH 562 0
DWIDTH 6 0
BBX 6 9 0 0
BITMAP
0200
0A00
7000
7000
7000
7000
7000
7550
7FE0
ENDCHAR
STARTCHAR lacute
ENCODING 314
SWIDTH 235 0
DWIDTH 2 0
BBX 3 10 0 0
BITMAP
18
24
10
70
70
70
70
70
70
70
ENDCHAR
STARTCHAR Lcommaaccent
ENCODING 315
SWIDTH 562 0
DWIDTH 6 0
BBX 6 10 0 -3
BITMAP
7000
7000
7000
7000
7000
7550
7FE0
0400
0900
0400
ENDCHAR
STARTCHAR lcommaaccent
ENCODING 316
SWIDTH 235 0
DWIDTH 2 0
BBX 2 11 0 -3
BITMAP
10
70
70
70
70
70
70
70
10
60
10
ENDCHAR
STARTCHAR Lcaron
ENCODING 317
SWIDTH 562 0
DWIDTH 6 0
BBX 6 7 0 0
BITMAP
7700
7200
7000
7000
7000
7550
7FE0
ENDCHAR
STARTCHAR lcaron
ENCODING 318
SWIDTH 369 0
DWIDTH 4 0
BBX 4 8 0 0
BITMAP
10
7A
75
70
70
70
70
70
ENDCHAR
STARTCHAR Ldot
ENCODING 319
SWIDTH 745 0
DWIDTH 7 0
BBX 7 7 0 0
BITMAP
7000
7000
7004
702C
7004
7550
7FE0
ENDCHAR
STARTCHAR ldotaccent
ENCODING 320
SWIDTH 463 0
DWIDTH 5 0
BBX 4 8 0 0
BITMAP
10
70
70
71
77
71
70
70
ENDCHAR
STARTCHAR Lslash
ENCODING 321
SWIDTH 585 0
DWIDTH 6 0
BBX 6 7 0 0
BITMAP
3400
3400
3C00
B800
B400
3950
3FE0
ENDCHAR
STARTCHAR lslash
ENCODING 322
SWIDTH 319 0
DWIDTH 3 0
BBX 3 8 0 0
BITMAP
10
34
34
38
B8
B4
34
34
ENDCHAR
STARTCHAR Nacute
ENCODING 323
SWIDTH 689 0
DWIDTH 7 0
BBX 7 9 0 0
BITMAP
0180
0240
7434
7C34
7E34
7774
72F4
70F4
70B4
ENDCHAR
STARTCHAR nacute
ENCODING 324
SWIDTH 562 0
DWIDTH 6 0
BBX 6 8 0 0
BITMAP
0240
0640
0500
7F80
71C0
70D0
70D0
70D0
ENDCHAR
STARTCHAR Ncommaaccent
ENCODING 325
SWIDTH 689 0
DWIDTH 7 0
BBX 7 10 0 -3
BITMAP
7434
7C34
7E34
7774
72F4
70F4
70B4
0100
0300
0100
ENDCHAR
STARTCHAR ncommaaccent
ENCODING 326
SWIDTH 562 0
DWIDTH 6 0
BBX 6 9 0 -3
BITMAP
0500
7F80
71C0
70D0
70D0
70D0
0400
0900
0400
ENDCHAR
STARTCHAR Ncaron
ENCODING 327
SWIDTH 689 0
DWIDTH 7 0
BBX 7 9 0 0
BITMAP
0A80
0200
7434
7C34
7E34
7774
72F4
70F4
70B4
ENDCHAR
STARTCHAR ncaron
ENCODING 328
SWIDTH 562 0
DWIDTH 6 0
BBX 6 8 0 0
BITMAP
1A00
0900
0500
7F80
71C0
70D0
70D0
70D0
ENDCHAR
STARTCHAR napostrophe
ENCODING 329
SWIDTH 694 0
DWIDTH 7 0
BBX 7 7 0 0
BITMAP
D000
9140
0FE0
0D34
0D28
0D28
0D28
ENDCHAR
STARTCHAR Eng
ENCODING 330
SWIDTH 689 0
DWIDTH 7 0
BBX 7 9 0 -2
BITMAP
7434
7C34
7E34
7774
72F4
70F4
70B4
01F0
0780
ENDCHAR
STARTCHAR eng
ENCODING 331
SWIDTH 562 0
DWIDTH 6 0
BBX 6 8 0 -2
BITMAP
0500
7F80
71C0
70D0
70D0
71C0
06C0
1E00
ENDCHAR
STARTCHAR Omacron
ENCODING 332
SWIDTH 777 0
DWIDTH 8 0
BBX 8 9 0 0
BITMAP
0140
0680
1BE0
3978
B01D
A00D
B01D
397C
1FE0
ENDCHAR
STARTCHAR omacron
ENCODING 333
SWIDTH 579 0
DWIDTH 6 0
BBX 6 8 0 0
BITMAP
0500
1A00
0500
3F80
B0D0
A0E0
75D0
2F40
ENDCHAR
STARTCHAR Obreve
ENCODING 334
SWIDTH 777 0
DWIDTH 8 0
BBX 8 9 0 0
BITMAP
0280
0240
1BE0
3978
B01D
A00D
B01D
397C
1FE0
ENDCHAR
STARTCHAR obreve
ENCODING 335
SWIDTH 579 0
DWIDTH 6 0
BBX 6 7 0 0
BITMAP
0A00
0E00
3F80
B0D0
A0E0
75D0
2F40
ENDCHAR
STARTCHAR Ohungarumlaut
ENCODING 336
SWIDTH 777 0
DWIDTH 8 0
BBX 8 10 0 0
BITMAP
0100
03B0
0590
1BE0
3978
B01D
A00D
B01D
397C
1FE0
ENDCHAR
STARTCHAR ohungarumlaut
ENCODING 337
SWIDTH 579 0
DWIDTH 6 0
BBX 6 8 0 0
BITMAP
0400
0EC0
1B40
3F80
B0D0
A0E0
75D0
2F40
ENDCHAR
STARTCHAR OE
ENCODING 338
SWIDTH 1125 0
DWIDTH 11 0
BBX 11 7 0 0
BITMAP
1BEFFC
397E54
B01E50
A00FE0
B01E50
397E54
1FEFFC
ENDCHAR
STARTCHAR oe
ENCODING 339
SWIDTH 924 0
DWIDTH 9 0
BBX 9 6 0 0
BITMAP
050500
3FBF80
B0E740
A0EE00
75FD80
2F6F80
ENDCHAR
STARTCHAR Racute
ENCODING 340
SWIDTH 651 0
DWIDTH 7 0
BBX 7 9 0 0
BITMAP
0140
0340
7F80
75F0
7074
7070
7AE0
7AC0
70E0
ENDCHAR
STARTCHAR racute
ENCODING 341
SWIDTH 414 0
DWIDTH 4 0
BBX 4 8 0 0
BITMAP
05
0D
01
6F
74
70
70
70
ENDCHAR
STARTCHAR Rcommaaccent
ENCODING 342
SWIDTH 651 0
DWIDTH 7 0
BBX 7 10 0 -3
BITMAP
7F80
75F0
7074
7070
7AE0
7AC0
70E0
0100
0700
0100
ENDCHAR
STARTCHAR rcommaaccent
ENCODING 343
SWIDTH 414 0
DWIDTH 4 0
BBX 4 9 0 -3
BITMAP
01
6F
74
70
70
70
10
60
10
ENDCHAR
STARTCHAR Rcaron
ENCODING 344
SWIDTH 651 0
DWIDTH 7 0
BBX 7 9 0 0
BITMAP
0A40
0600
7F80
75F0
7074
7070
7AE0
7AC0
70E0
ENDCHAR
STARTCHAR rcaron
ENCODING 345
SWIDTH 414 0
DWIDTH 4 0
BBX 4 8 0 0
BITMAP
29
14
01
6F
74
70
70
70
ENDCHAR
STARTCHAR Sacute
ENCODING 346
SWIDTH 610 0
DWIDTH 6 0
BBX 6 10 0 0
BITMAP
0140
0340
0000
2FE0
B550
A500
7FD0
05A0
15E0
7F80
ENDCHAR
STARTCHAR sacute
ENCODING 347
SWIDTH 523 0
DWIDTH 5 0
BBX 5 8 0 0
BITMAP
0200
0A00
0500
7F80
B500
7F80
56C0
BF40
ENDCHAR
STARTCHAR Scircumflex
ENCODING 348
SWIDTH 610 0
DWIDTH 6 0
BBX 6 9 0 0
BITMAP
0600
0A00
2FE0
B550
A500
7FD0
05A0
15E0
7F80
ENDCHAR
STARTCHAR scircumflex
ENCODING 349
SWIDTH 523 0
DWIDTH 5 0
BBX 5 8 0 0
BITMAP
0900
1A00
0500
7F80
B500
7F80
56C0
BF40
ENDCHAR
STARTCHAR Scedilla
ENCODING 350
SWIDTH 610 0
DWIDTH 6 0
BBX 6 9 0 -2
BITMAP
2FE0
B550
A500
7FD0
05A0
15E0
7F80
0600
0B00
ENDCHAR
STARTCHAR scedilla
ENCODING 351
SWIDTH 523 0
DWIDTH 5 0
BBX 5 9 0 -3
BITMAP
0500
7F80
B500
7F80
56C0
BF40
0900
1A00
0400
ENDCHAR
STARTCHAR Scaron
ENCODING 352
SWIDTH 610 0
DWIDTH 6 0
BBX 6 9 0 0
BITMAP
0A00
0500
2FE0
B550
A500
7FD0
05A0
15E0
7F80
ENDCHAR
STARTCHAR scaron
ENCODING 353
SWIDTH 523 0
DWIDTH 5 0
BBX 5 8 0 0
BITMAP
1A00
0900
0500
7F80
B500
7F80
56C0
BF40
ENDCHAR
STARTCHAR Tcommaaccent
ENCODING 354
SWIDTH 578 0
DWIDTH 6 0
BBX 6 10 0 -3
BITMAP
FFE0
5E50
0A00
0A00
0A00
0A00
0A00
0500
0A00
0400
ENDCHAR
STARTCHAR tcommaaccent
ENCODING 355
SWIDTH 437 0
DWIDTH 4 0
BBX 4 11 0 -3
BITMAP
10
70
75
FF
74
70
39
1F
04
18
04
ENDCHAR
STARTCHAR Tcaron
ENCODING 356
SWIDTH 578 0
DWIDTH 6 0
BBX 6 9 0 0
BITMAP
1A00
0500
FFE0
5E50
0A00
0A00
0A00
0A00
0A00
ENDCHAR
STARTCHAR tcaron
ENCODING 357
SWIDTH 570 0
DWIDTH 6 0
BBX 6 8 0 0
BITMAP
1000
70A0
7550
FF00
7400
7000
3900
1F00
ENDCHAR
STARTCHAR Tbar
ENCODING 358
SWIDTH 578 0
DWIDTH 6 0
BBX 6 7 0 0
BITMAP
FFE0
5E50
0A00
1F40
1F40
0A00
0A00
ENDCHAR
STARTCHAR tbar
ENCODING 359
SWIDTH 437 0
DWIDTH 4 0
BBX 4 8 0 0
BITMAP
10
70
75
FF
79
BC
39
1F
ENDCHAR
STARTCHAR Utilde
ENCODING 360
SWIDTH 673 0
DWIDTH 7 0
BBX 7 9 0 0
BITMAP
0A80
0980
7074
7074
7074
7074
7070
39E0
1B80
ENDCHAR
STARTCHAR utilde
ENCODING 361
SWIDTH 562 0
DWIDTH 6 0
BBX 5 7 0 0
BITMAP
1A40
2640
A1C0
A1C0
A1C0
76C0
2F80
ENDCHAR
STARTCHAR Umacron
ENCODING 362
SWIDTH 673 0
DWIDTH 7 0
BBX 7 9 0 0
BITMAP
0540
0A40
7074
7074
7074
7074
7070
39E0
1B80
ENDCHAR
STARTCHAR umacron
ENCODING 363
SWIDTH 562 0
DWIDTH 6 0
BBX 5 7 0 0
BITMAP
0500
1A40
A1C0
A1C0
A1C0
76C0
2F80
ENDCHAR
STARTCHAR Ubreve
ENCODING 364
SWIDTH 673 0
DWIDTH 7 0
BBX 7 9 0 0
BITMAP
0A40
0600
7074
7074
7074
7074
7070
39E0
1B80
ENDCHAR
STARTCHAR ubreve
ENCODING 365
SWIDTH 562 0
DWIDTH 6 0
BBX 5 7 0 0
BITMAP
1A00
1940
A1C0
A1C0
A1C0
76C0
2F80
ENDCHAR
STARTCHAR Uring
ENCODING 366
SWIDTH 673 0
DWIDTH 7 0
BBX 7 9 0 0
BITMAP
0640
0600
7074
7074
7074
7074
7070
39E0
1B80
ENDCHAR
STARTCHAR uring
ENCODING 367
SWIDTH 562 0
DWIDTH 6 0
BBX 5 7 0 0
BITMAP
0A00
1940
A1C0
A1C0
A1C0
76C0
2F80
ENDCHAR
STARTCHAR Uhungarumlaut
ENCODING 368
SWIDTH 673 0
DWIDTH 7 0
BBX 7 10 0 0
BITMAP
0100
0A90
0580
7074
7074
7074
7074
7070
39E0
1B80
ENDCHAR
STARTCHAR uhungarumlaut
ENCODING 369
SWIDTH 562 0
DWIDTH 6 0
BBX 5 8 0 0
BITMAP
0400
1EC0
1680
A1C0
A1C0
A1C0
76C0
2F80
ENDCHAR
STARTCHAR Uogonek
ENCODING 370
SWIDTH 673 0
DWIDTH 7 0
BBX 7 9 0 -2
BITMAP
7074
7074
7074
7074
7070
39E0
1F80
0900
0600
ENDCHAR
STARTCHAR uogonek
ENCODING 371
SWIDTH 562 0
DWIDTH 6 0
BBX 6 8 0 -2
BITMAP
1040
A1C0
A1C0
A1C0
76C0
2F80
0080
0090
ENDCHAR
STARTCHAR Wcircumflex
ENCODING 372
SWIDTH 819 0
DWIDTH 8 0
BBX 8 9 0 0
BITMAP
0180
0290
728A
728A
728A
728A
728A
76DD
2FB8
ENDCHAR
STARTCHAR wcircumflex
ENCODING 373
SWIDTH 756 0
DWIDTH 8 0
BBX 7 8 0 0
BITMAP
0240
0680
1104
A35C
A35C
A35C
77AC
2EF4
ENDCHAR
STARTCHAR Ycircumflex
ENCODING 374
SWIDTH 620 0
DWIDTH 6 0
BBX 6 9 0 0
BITMAP
0600
0A40
A0B0
A0B0
A0B0
7AD0
1F40
0A00
0A00
ENDCHAR
STARTCHAR ycircumflex
ENCODING 375
SWIDTH 562 0
DWIDTH 6 0
BBX 5 10 0 -2
BITMAP
0900
1A00
1040
A1C0
A1C0
A1C0
76C0
2FC0
0680
1E00
ENDCHAR
STARTCHAR Ydieresis
ENCODING 376
SWIDTH 620 0
DWIDTH 6 0
BBX 6 9 0 0
BITMAP
0540
1940
A0B0
A0B0
A0B0
7AD0
1F40
0A00
0A00
ENDCHAR
STARTCHAR Zacute
ENCODING 377
SWIDTH 586 0
DWIDTH 6 0
BBX 6 9 0 0
BITMAP
0240
0640
BFD0
57C0
0740
0E00
1D00
3D50
BFE0
ENDCHAR
STARTCHAR zacute
ENCODING 378
SWIDTH 481 0
DWIDTH 5 0
BBX 5 8 0 0
BITMAP
0600
0A00
1500
BF40
0A00
1C00
3940
7F80
ENDCHAR
STARTCHAR Zdotaccent
ENCODING 379
SWIDTH 586 0
DWIDTH 6 0
BBX 6 9 0 0
BITMAP
0500
0500
BFD0
57C0
0740
0E00
1D00
3D50
BFE0
ENDCHAR
STARTCHAR zdotaccent
ENCODING 380
SWIDTH 481 0
DWIDTH 5 0
BBX 5 7 0 0
BITMAP
0800
1900
BF40
0A00
1C00
3940
7F80
ENDCHAR
STARTCHAR Zcaron
ENCODING 381
SWIDTH 586 0
DWIDTH 6 0
BBX 6 9 0 0
BITMAP
0A00
0500
BFD0
57C0
0740
0E00
1D00
3D50
BFE0
ENDCHAR
STARTCHAR zcaron
ENCODING 382
SWIDTH 481 0
DWIDTH 5 0
BBX 5 8 0 0
BITMAP
2900
0800
1500
BF40
0A00
1C00
3940
7F80
ENDCHAR
STARTCHAR AEacute
ENCODING 508
SWIDTH 988 0
DWIDTH 10 0
BBX 10 9 0 0
BITMAP
001800
002400
1BFFE0
39B950
707500
707F40
7AF500
7AB950
707FE0
ENDCHAR
STARTCHAR aeacute
ENCODING 509
SWIDTH 976 0
DWIDTH 10 0
BBX 10 8 0 0
BITMAP
001800
003400
050540
3FBFD0
A1F6C0
A0B700
B5FE90
2FAFD0
ENDCHAR
STARTCHAR Oslashacute
ENCODING 510
SWIDTH 777 0
DWIDTH 8 0
BBX 8 10 0 0
BITMAP
0090
0180
0000
1BF8
39B8
B0DD
A28D
BA1D
3D7C
3FE0
ENDCHAR
STARTCHAR oslashacute
ENCODING 511
SWIDTH 579 0
DWIDTH 6 0
BBX 6 8 0 0
BITMAP
0240
0640
0540
3FC0
B7D0
A9E0
7DD0
7F40
ENDCHAR
STARTCHAR dotlessj
ENCODING 567
SWIDTH 237 0
DWIDTH 2 0
BBX 4 8 -2 -2
BITMAP
01
07
07
07
07
0B
1E
78
ENDCHAR
STARTCHAR circumflex
ENCODING 710
SWIDTH 267 0
DWIDTH 3 0
BBX 3 2 0 5
BITMAP
60
A4
ENDCHAR
STARTCHAR caron
ENCODING 711
SWIDTH 267 0
DWIDTH 3 0
BBX 3 2 0 5
BITMAP
A4
20
ENDCHAR
STARTCHAR breve
ENCODING 728
SWIDTH 220 0
DWIDTH 2 0
BBX 2 2 0 5
BITMAP
A0
60
ENDCHAR
STARTCHAR dotaccent
ENCODING 729
SWIDTH 125 0
DWIDTH 1 0
BBX 1 2 0 5
BITMAP
80
80
ENDCHAR
STARTCHAR ring
ENCODING 730
SWIDTH 192 0
DWIDTH 2 0
BBX 2 2 0 5
BITMAP
A0
A0
ENDCHAR
STARTCHAR ogonek
ENCODING 731
SWIDTH 212 0
DWIDTH 2 0
BBX 2 2 0 -2
BITMAP
90
A0
ENDCHAR
STARTCHAR tilde
ENCODING 732
SWIDTH 321 0
DWIDTH 3 0
BBX 4 2 0 5
BITMAP
A9
98
ENDCHAR
STARTCHAR hungarumlaut
ENCODING 733
SWIDTH 384 0
DWIDTH 4 0
BBX 4 3 0 5
BITMAP
10
BA
58
ENDCHAR
STARTCHAR uni0312
ENCODING 786
SWIDTH 192 0
DWIDTH 2 0
BBX 2 2 0 5
BITMAP
90
50
ENDCHAR
STARTCHAR uni0315
ENCODING 789
SWIDTH 132 0
DWIDTH 1 0
BBX 2 2 0 5
BITMAP
D0
80
ENDCHAR
STARTCHAR uni0326
ENCODING 806
SWIDTH 193 0
DWIDTH 2 0
BBX 2 2 0 -2
BITMAP
50
60
ENDCHAR
STARTCHAR pi
ENCODING 960
SWIDTH 555 0
DWIDTH 6 0
BBX 6 6 0 0
BITMAP
5540
BFD0
3680
3680
3680
3680
ENDCHAR
STARTCHAR Wgrave
ENCODING 7808
SWIDTH 819 0
DWIDTH 8 0
BBX 8 9 0 0
BITMAP
0600
0640
728A
728A
728A
728A
728A
76DD
2FB8
ENDCHAR
STARTCHAR wgrave
ENCODING 7809
SWIDTH 756 0
DWIDTH 8 0
BBX 7 8 0 0
BITMAP
0900
0600
1104
A35C
A35C
A35C
77AC
2EF4
ENDCHAR
STARTCHAR Wacute
ENCODING 7810
SWIDTH 819 0
DWIDTH 8 0
BBX 8 9 0 0
BITMAP
0060
00D0
728A
728A
728A
728A
728A
76DD
2FB8
ENDCHAR
STARTCHAR wacute
ENCODING 7811
SWIDTH 756 0
DWIDTH 8 0
BBX 7 8 0 0
BITMAP
0090
0190
1104
A35C
A35C
A35C
77AC
2EF4
ENDCHAR
STARTCHAR Wdieresis
ENCODING 7812
SWIDTH 819 0
DWIDTH 8 0
BBX 8 9 0 0
BITMAP
0150
0650
728A
728A
728A
728A
728A
76DD
2FB8
ENDCHAR
STARTCHAR wdieresis
ENCODING 7813
SWIDTH 756 0
DWIDTH 8 0
BBX 7 7 0 0
BITMAP
0540
1594
A35C
A35C
A35C
77AC
2EF4
ENDCHAR
STARTCHAR Ygrave
ENCODING 7922
SWIDTH 620 0
DWIDTH 6 0
BBX 6 9 0 0
BITMAP
2400
1C00
A0B0
A0B0
A0B0
7AD0
1F40
0A00
0A00
ENDCHAR
STARTCHAR ygrave
ENCODING 7923
SWIDTH 562 0
DWIDTH 6 0
BBX 5 10 0 -2
BITMAP
2000
2800
1040
A1C0
A1C0
A1C0
76C0
2FC0
0680
1E00
ENDCHAR
STARTCHAR endash
ENCODING 8211
SWIDTH 418 0
DWIDTH 4 0
BBX 4 2 0 3
BITMAP
14
7E
ENDCHAR
STARTCHAR emdash
ENCODING 8212
SWIDTH 719 0
DWIDTH 7 0
BBX 7 2 0 3
BITMAP
1550
7FF8
ENDCHAR
STARTCHAR quoteleft
ENCODING 8216
SWIDTH 246 0
DWIDTH 2 0
BBX 2 3 0 4
BITMAP
50
B0
50
ENDCHAR
STARTCHAR quoteright
ENCODING 8217
SWIDTH 245 0
DWIDTH 2 0
BBX 2 3 0 4
BITMAP
70
70
10
ENDCHAR
STARTCHAR quotesinglbase
ENCODING 8218
SWIDTH 264 0
DWIDTH 3 0
BBX 2 3 0 -1
BITMAP
10
70
30
ENDCHAR
STARTCHAR quotedblleft
ENCODING 8220
SWIDTH 445 0
DWIDTH 4 0
BBX 4 3 0 4
BITMAP
55
BB
55
ENDCHAR
STARTCHAR quotedblright
ENCODING 8221
SWIDTH 444 0
DWIDTH 4 0
BBX 4 3 0 4
BITMAP
77
77
11
ENDCHAR
STARTCHAR quotedblbase
ENCODING 8222
SWIDTH 463 0
DWIDTH 5 0
BBX 4 3 0 -1
BITMAP
11
7B
33
ENDCHAR
STARTCHAR dagger
ENCODING 8224
SWIDTH 434 0
DWIDTH 4 0
BBX 4 9 0 -1
BITMAP
2C
2D
BF
2C
2C
2C
2C
2C
2C
ENDCHAR
STARTCHAR daggerdbl
ENCODING 8225
SWIDTH 452 0
DWIDTH 5 0
BBX 4 9 0 -1
BITMAP
1C
2D
BF
2C
1C
2D
BF
2C
1C
ENDCHAR
STARTCHAR bullet
ENCODING 8226
SWIDTH 354 0
DWIDTH 4 0
BBX 3 3 0 2
BITMAP
24
78
10
ENDCHAR
STARTCHAR ellipsis
ENCODING 8230
SWIDTH 789 0
DWIDTH 8 0
BBX 8 3 0 -1
BITMAP
1004
729D
1104
ENDCHAR
STARTCHAR perthousand
ENCODING 8240
SWIDTH 998 0
DWIDTH 10 0
BBX 10 7 0 0
BITMAP
7C6000
99C000
6E8000
175140
0AE790
1D9A60
24F6D0
ENDCHAR
STARTCHAR guilsinglleft
ENCODING 8249
SWIDTH 403 0
DWIDTH 4 0
BBX 4 5 0 0
BITMAP
09
28
B4
2D
09
ENDCHAR
STARTCHAR guilsinglright
ENCODING 8250
SWIDTH 402 0
DWIDTH 4 0
BBX 4 5 0 0
BITMAP
60
28
1E
38
60
ENDCHAR
STARTCHAR fraction
ENCODING 8260
SWIDTH 477 0
DWIDTH 5 0
BBX 5 7 0 0
BITMAP
0180
0300
0900
0C00
2400
6000
9000
ENDCHAR
STARTCHAR Euro
ENCODING 8364
SWIDTH 806 0
DWIDTH 8 0
BBX 8 7 0 0
BITMAP
02FD
0B99
3FC0
6E40
BF80
0B59
02FD
ENDCHAR
STARTCHAR trademark
ENCODING 8482
SWIDTH 606 0
DWIDTH 6 0
BBX 6 3 0 4
BITMAP
6690
2190
1150
ENDCHAR
STARTCHAR partialdiff
ENCODING 8706
SWIDTH 609 0
DWIDTH 6 0
BBX 6 8 0 0
BITMAP
0600
0340
06C0
2FD0
70E0
A0A0
75D0
2F80
ENDCHAR
STARTCHAR product
ENCODING 8719
SWIDTH 632 0
DWIDTH 6 0
BBX 6 7 0 0
BITMAP
BFF0
7AD0
29C0
29C0
29C0
29C0
29C0
ENDCHAR
STARTCHAR minus
ENCODING 8722
SWIDTH 543 0
DWIDTH 5 0
BBX 5 2 0 3
BITMAP
1500
7F80
ENDCHAR
STARTCHAR infinity
ENCODING 8734
SWIDTH 771 0
DWIDTH 8 0
BBX 8 5 0 1
BITMAP
1850
7FFC
A38D
7BEC
2EB4
ENDCHAR
STARTCHAR approxequal
ENCODING 8776
SWIDTH 476 0
DWIDTH 5 0
BBX 4 5 0 1
BITMAP
11
7F
25
7F
15
ENDCHAR
STARTCHAR notequal
ENCODING 8800
SWIDTH 512 0
DWIDTH 5 0
BBX 5 7 0 0
BITMAP
0100
1700
BF80
1D40
BF80
3800
2000
ENDCHAR
STARTCHAR fi
ENCODING 64257
SWIDTH 650 0
DWIDTH 7 0
BBX 6 8 0 0
BITMAP
0A50
3AB0
7550
BFF0
7470
3470
3470
3470
ENDCHAR
STARTCHAR fl
ENCODING 64258
SWIDTH 631 0
DWIDTH 6 0
BBX 6 8 0 0
BITMAP
0AA0
3AA0
75A0
BFA0
74A0
34A0
34A0
34A0
ENDCHAR
STARTCHAR .notdef
ENCODING -1
SWIDTH 279 0
DWIDTH 3 0
BBX 1 1 0 0
BITMAP
00
ENDCHAR
STARTCHAR .null
ENCODING -1
SWIDTH 0 0
DWIDTH 0 0
BBX 1 1 0 0
BITMAP
00
ENDCHAR
STARTCHAR nonmarkingreturn
ENCODING -1
SWIDTH 279 0
DWIDTH 3 0
BBX 1 1 0 0
BITMAP
00
ENDCHAR
ENDFONT
